# xmcd CD database file
#
# Track frame offsets:
#	150
#	13635
#	24702
#	36152
#	50240
#	61565
#	74566
#	89821
#	103961
#	117867
#	133893
#	148565
#	163082
#	174336
#	190847
#
# Disc length: 2746 seconds
#
# Revision: 0
# Processed by: cddbd v1.5.2PL0 Copyright (c) Steve Scherf et al.
# Submitted via: CDex 1.51
#
DISCID=de0ab80f
DTITLE=Randy Travis - I'll Fly Away
DYEAR=2010
DGENRE=Country
TTITLE0=I'll Fly Away
TTITLE1=Sweet By And By
TTITLE2=Nothing But The Blood
TTITLE3=Will The Circle Be Unbroken?
TTITLE4=Jesus On The Mainline
TTITLE5=The Unclouded Day
TTITLE6=Since Jesus Came Into My Heart
TTITLE7=Are You Washed In The Blood?
TTITLE8=Down By The Riverside
TTITLE9=Go Tell It On The Mountain
TTITLE10=Shall We Gather At The River
TTITLE11=Swing Down Chariot
TTITLE12=He's My Rock, My Sword, My Sheild
TTITLE13=This Train
TTITLE14=Three Wooden Crosses (Bonus Track)
EXTD=YEAR: 2010
EXTT0=
EXTT1=
EXTT2=
EXTT3=
EXTT4=
EXTT5=
EXTT6=
EXTT7=
EXTT8=
EXTT9=
EXTT10=
EXTT11=
EXTT12=
EXTT13=
EXTT14=
PLAYORDER=
